<?xml version="1.0" encoding="UTF-8"?>
<svg width="1092" height="512" version="1.1" xml:space="preserve" xmlns="http://www.w3.org/2000/svg" xmlns:xlink="http://www.w3.org/1999/xlink"><defs><linearGradient id="a" x1="602.32" x2="602.32" y1="-195.11" y2="-483.57" gradientUnits="userSpaceOnUse" xlink:href="#b"/><linearGradient id="b"><stop stop-color="#01cfcb" offset="0"/><stop stop-color="#007af9" offset="1"/></linearGradient></defs><title>© 2021 NinStar</title><g transform="matrix(1.0046 0 0 1.0046 -396.58 573.64)"><g stroke="url(#a)"><rect x="624.51" y="-399.57" width="139" height="198.14" fill="url(#a)" stop-color="#000000" stroke-linecap="square" stroke-width="43.846" style="paint-order:markers stroke fill"/><path d="m697.4-481.17c-5.706 0-10.622 2.0657-14.75 6.1934-4.1276 4.1277-6.1914 9.1043-6.1914 14.932 0 5.7059 2.0638 10.622 6.1914 14.75 4.1278 4.1277 9.044 6.1914 14.75 6.1914 5.8272 0 10.806-2.0637 14.934-6.1914 4.1278-4.1277 6.1914-9.0441 6.1914-14.75 0-5.8273-2.0636-10.804-6.1914-14.932-4.1276-4.1277-9.1064-6.1934-14.934-6.1934zm-280.44 11.838v267.88h210.33v-267.88h-26.406v205.05l-178.1-205.05zm445.97 64.646c-14.568 0-28.045 3.3987-40.428 10.197-26.816 14.796-37.799 47.836-33.871-5.0976h-25.494v198.13h172.82v-101.98c0-26.951-2.7321-46.802-8.1953-59.549-5.4631-12.747-13.961-22.883-25.494-30.41-11.412-7.527-24.523-11.291-39.334-11.291zm-178.28 5.0996v198.13h25.678v-198.13z" fill="url(#a)" stroke-width="44" style="paint-order:markers stroke fill"/><path d="m697.4-481.17c-5.706 0-10.622 2.0657-14.75 6.1934-4.1276 4.1277-6.1914 9.1043-6.1914 14.932 0 5.7059 2.0638 10.622 6.1914 14.75 4.1278 4.1277 9.044 6.1914 14.75 6.1914 5.8272 0 10.804-2.0637 14.932-6.1914 4.1279-4.1277 6.1934-9.0441 6.1934-14.75 0-5.8273-2.0655-10.804-6.1934-14.932-4.1275-4.1277-9.1044-6.1934-14.932-6.1934zm-280.44 11.838v267.88h27.68v-202.5l176.64 202.5h6.0098v-267.88h-26.406v205.05l-178.1-205.05zm445.97 64.646c-14.568 0-28.045 3.3987-40.428 10.197-12.383 6.6771-23.673 16.815-33.871 30.412v-35.51h-25.494v198.13h25.494v-72.66c0-26.102 1.2147-44.069 3.6425-53.902 3.8849-15.054 11.897-27.679 24.037-37.877 12.262-10.198 26.101-15.297 41.52-15.297 13.476 0 24.402 3.3385 32.779 10.016 8.3766 6.5557 14.082 16.389 17.117 29.5 1.9424 7.6484 2.914 22.885 2.914 45.709v94.512h25.312v-101.98c0-26.951-2.7323-46.802-8.1953-59.549-5.4632-12.747-13.961-22.883-25.494-30.41-11.412-7.527-24.523-11.291-39.334-11.291zm-178.28 5.0996v198.13h25.678v-198.13z" fill="#fff" stroke-width="44" style="paint-order:markers stroke fill"/></g><path d="m1226.4-101.25-44.203-40.968 41.639-24.041 45.119 26.05z" fill="#01cfcb"/><path d="m1226-549.04c-26.778 1.7862-65.822 123.15-76.708 134.61-13.292 14.001-147.84 6.2992-155.96 33.865-8.9144 30.25 114.22 105.87 110.29 120.95-55.198 211.56-26.226 162.28 109.71 94.038 5.4983-2.7601 8.7126-4.7624 12.908-5.4696 4.1943 0.70799 7.415 2.7095 12.921 5.4696 10.302 5.1716 19.953 10.222 29.036 15.07-13.58 13.58-29.655 29.655-42.2 42.2l-38.523-38.523c-3.5626 1.8979-6.9136 3.7118-10.294 5.5406l48.817 48.817 223.46-223.46-16.387-16.386c-1.1233 1.0604-2.1594 2.1047-3.3158 3.1685-1.5953 1.4674-3.2932 2.9404-4.9398 4.4116l8.8065 8.8063c-25.437 25.438-49.804 49.804-76.054 76.056-1.8677-6.0799-7.0158-13.27-8.7032-19.739-3.9308-15.072 119.21-90.696 110.29-120.95-8.1168-27.566-142.66-19.864-155.95-33.865-10.884-11.467-49.928-132.83-76.716-134.61zm-43.043 52.695-88.774 88.774c0.566-0.0426 1.1851-0.0962 1.7492-0.1464 5.6499-0.46666 10.595-0.97815 15.708-1.4765l58.527-58.528c2.596-6.0287 5.2077-12.114 7.9919-18.271 1.5738-3.4808 3.1812-6.9318 4.798-10.353zm86.995 0.9055c1.4727 3.1293 2.9408 6.2712 4.3784 9.4478 2.9162 6.4489 5.6638 12.84 8.3718 19.137l57.611 57.611c5.2635 0.51895 10.402 1.0443 16.245 1.5266 0.3955 0.0302 0.8226 0.0642 1.2188 0.0962zm-86.036 124.55c8.0153 0 14.512 19.493 14.512 43.54 0 24.047-6.497 43.54-14.512 43.54-8.0141 0-14.512-19.493-14.512-43.54 0-24.047 6.4981-43.54 14.512-43.54zm84.66 0c8.0066 0 14.515 19.493 14.515 43.54 0 24.047-6.5087 43.54-14.515 43.54-8.0251 0-14.514-19.493-14.514-43.54 0-24.047 6.4891-43.54 14.514-43.54zm-249.41 38.331-16.624 16.624 88.99 88.99c0.9822-3.9443 2.156-8.4409 3.2196-12.615l-76.374-76.374 9.036-9.0368c-1.558-1.3945-3.1702-2.7912-4.6825-4.182-1.2429-1.1434-2.359-2.2673-3.5645-3.4056z" color="#000000" color-rendering="auto" dominant-baseline="auto" fill="#fff" image-rendering="auto" shape-rendering="auto" solid-color="#000000" stop-color="#000000" stroke="url(#a)" stroke-linecap="round" stroke-width="44" style="font-feature-settings:normal;font-variant-alternates:normal;font-variant-caps:normal;font-variant-east-asian:normal;font-variant-ligatures:normal;font-variant-numeric:normal;font-variant-position:normal;font-variation-settings:normal;inline-size:0;isolation:auto;mix-blend-mode:normal;paint-order:markers stroke fill;shape-margin:0;shape-padding:0;text-decoration-color:#000000;text-decoration-line:none;text-decoration-style:solid;text-indent:0;text-orientation:mixed;text-transform:none;white-space:normal"/></g></svg>
