<?xml version="1.0" encoding="UTF-8"?>
<svg width="1212" height="512" version="1.1" xml:space="preserve" xmlns="http://www.w3.org/2000/svg" xmlns:xlink="http://www.w3.org/1999/xlink"><defs><linearGradient id="c" x1="41427" x2="41427" y1="13777" y2="14778" gradientTransform="translate(-39965 -13253)" gradientUnits="userSpaceOnUse" xlink:href="#a"/><linearGradient id="a"><stop stop-color="#0085f9" offset="0"/><stop stop-color="#19feab" offset="1"/></linearGradient><linearGradient id="b" x1="16149" x2="18687" y1="2435.3" y2="2435.3" gradientUnits="userSpaceOnUse" xlink:href="#d"/><linearGradient id="d"><stop stop-color="#2e2c4c" offset="0"/><stop stop-color="#2e2c4c" stop-opacity="0" offset="1"/></linearGradient><linearGradient id="f" x1="11492" x2="10784" y1="14228" y2="14936" gradientUnits="userSpaceOnUse" xlink:href="#a"/><filter id="i" x="-.021655" y="-.058239" width="1.0446" height="1.1165" color-interpolation-filters="sRGB"><feGaussianBlur stdDeviation="19.569772"/></filter><linearGradient id="e" x1="16422" x2="16422" y1="1583.8" y2="500.45" gradientTransform="matrix(.92513 0 0 .92513 -13730 61.147)" gradientUnits="userSpaceOnUse" xlink:href="#a"/><filter id="g" x="-.056166" y="-.11284" width="1.1123" height="1.2257" color-interpolation-filters="sRGB"><feGaussianBlur stdDeviation="6.9382759"/></filter><filter id="h" x="-.047316" y="-.050886" width="1.0946" height="1.0973" color-interpolation-filters="sRGB"><feGaussianBlur stdDeviation="8.9944774"/></filter></defs><title>© 2024 NinStar</title><g transform="matrix(.45361 0 0 .45361 291.36 -208.86)"><g><path d="m-447.54 1418h1617.2l-85.774-265.67-326.65-105.69-258.26-62.678-97.278-131.54h-363.39l-128 265.55-357.89-156.93z" fill="url(#c)" stroke="url(#c)" stroke-linejoin="round" stroke-width="128" style="paint-order:markers stroke fill"/><g transform="matrix(1 0 0 1 -16725 -1410.5)" fill="#fff" stroke="url(#b)" stroke-width="128"><g transform="rotate(-45)" fill="#fff" stroke="url(#b)" stroke-width="128"><path d="m11492 14228h-473.62l-118.87-88.711 1.131 88.711h-116.27v332.06l-155.16 109.73 155.16 48.23v217.61h707.63v-116.28l88.706 1.135-88.71-118.87zm-81.12 81.12-84.88 250.3 158.07 211.82-264.45-3.943-73.688 104.2-113.59 0.06-43.61-140.29-252.39-78.453 215.8-152.61-3.377-264.28 211.82 158.07zm-1118-1077-318.1 318.1-25.473-661.68-530.26 530.26 90.509 90.51 323.12-323.12 19.228 665.47 1.2289 1.229c150.25-150.25 379.97-379.97 530.22-530.22zm50.252 310.92-399.92 399.92 76.368 76.368 399.92-399.92zm333.87 333.88c-41.79-41.79-101-66.189-163.94-65.905l-3.149-99.216-0.897-0.898-398.94 398.94 76.368 76.367 217.04-217.04c79.465-79.465 151.8-61.222 197.14-15.876 45.346 45.346 63.588 117.68-15.868 197.14l-217.54 216.34 76.156 76.579 217.69-216.49 0.05-0.05c113.46-113.46 100.05-265.7 16.583-349.17zm602.13 696.37-159.71 33.071 40.609 40.612 103.38-21.411zm-114.22-110.23-157.04 30.737 0.247 1.264 39.808 39.808 56.734-11.104-10.634 56.588 51.008-11.532zm-38.283 519.6-109.99 0.312 33.517 107.82z" color="#000000" fill="#fff" stroke="url(#f)" stroke-linecap="square" stroke-linejoin="round" stroke-width="128" style="paint-order:markers stroke fill"/></g></g><g transform="matrix(1 0 0 1 -16725 -1410.5)" fill="#1750d6" filter="url(#i)" opacity=".5" stroke="#1750d6" stroke-width="16" style="mix-blend-mode:normal"><g transform="rotate(-45)" fill="#1750d6" stroke="#1750d6" stroke-width="16"><path d="m11492 14228h-473.62l-118.87-88.711 1.131 88.711h-116.27v332.06l-155.16 109.73 155.16 48.23v217.61h707.63v-116.28l88.706 1.135-88.71-118.87zm-81.12 81.12-84.88 250.3 158.07 211.82-264.45-3.943-73.688 104.2-113.59 0.06-43.61-140.29-252.39-78.453 215.8-152.61-3.377-264.28 211.82 158.07zm-1118-1077-318.1 318.1-25.473-661.68-530.26 530.26 90.51 90.51 323.12-323.12 19.228 665.47 1.2289 1.229 530.26-530.26zm50.252 310.92-399.92 399.92 76.368 76.368 399.92-399.92zm333.87 333.88c-41.79-41.79-101-66.189-163.94-65.905l-3.149-99.216-0.897-0.898-398.94 398.94 76.368 76.367 217.04-217.04c79.465-79.465 151.8-61.222 197.14-15.876 45.346 45.346 63.588 117.68-15.868 197.14l-217.54 216.34 76.156 76.579 217.69-216.49 0.05-0.05c113.46-113.46 100.05-265.7 16.583-349.17zm602.13 696.37-159.71 33.071 40.609 40.612 103.38-21.411zm-114.22-110.23-157.04 30.737 0.247 1.264 39.808 39.808 56.734-11.104-10.634 56.588 51.008-11.532zm-38.283 519.6-109.99 0.312 33.517 107.82z" color="#000000" fill="#1750d6" stroke="#1750d6" stroke-linecap="square" stroke-width="16" style="paint-order:markers stroke fill"/></g></g></g><path d="m1228 1360.1 44.745-260.9-189.55-184.77 261.95-38.062 117.15-237.37 117.15 237.37 261.95 38.064-189.55 184.76 21.088 125.7-80.399 80.484-130.24-68.469z" fill="url(#e)" style="paint-order:markers stroke fill"/><g transform="matrix(.94494 0 0 .94494 -14055 39.333)" fill="#fff" filter="url(#g)" style="mix-blend-mode:overlay"><path d="m16352 930.72-96.683 143.74 1.157 0.7785h60.945l34.93-51.931 35.177 51.458 30.219-47.874z" color="#000000" style="paint-order:markers stroke fill"/><path d="m16523 927.66-96.939 147.57 62.174 7e-4 62.747-95.525z" color="#000000" style="paint-order:markers stroke fill"/></g><g transform="matrix(1 0 0 1 -16725 -1410.5)" fill="#fff"><g transform="rotate(-45)" fill="#fff"><path d="m11492 14228h-473.62l-118.87-88.711 1.131 88.711h-116.27v332.06l-155.16 109.73 155.16 48.23v217.61h707.63v-116.28l88.706 1.135-88.71-118.87zm-81.12 81.12-84.88 250.3 158.07 211.82-264.45-3.943-73.688 104.2-113.59 0.06-43.61-140.29-252.39-78.453 215.8-152.61-3.377-264.28 211.82 158.07zm-1118-1077-318.1 318.1-25.473-661.68-530.26 530.26 90.51 90.51 323.12-323.12 19.228 665.47 1.2289 1.229c150.25-150.25 380.01-380.01 530.26-530.26zm50.252 310.92-399.92 399.92 76.368 76.368 399.92-399.92zm333.87 333.88c-41.79-41.79-101-66.189-163.94-65.905l-3.149-99.216-0.897-0.898-398.94 398.94 76.368 76.367 217.04-217.04c79.465-79.465 151.8-61.222 197.14-15.876 45.346 45.346 63.588 117.68-15.868 197.14l-217.54 216.34 76.156 76.579 217.69-216.49 0.05-0.05c113.46-113.46 100.05-265.7 16.583-349.17zm602.13 696.37-159.71 33.071 40.609 40.612 103.38-21.411zm-114.22-110.23-157.04 30.737 0.247 1.264 39.808 39.808 56.734-11.104-10.634 56.588 51.008-11.532zm-38.283 519.6-109.99 0.312 33.517 107.82z" color="#000000" fill="#fff" style="paint-order:markers stroke fill"/></g></g><path transform="matrix(.92513 0 0 .92513 -18406 -6061.6)" d="m21223 8022.3 48.367-282.01-204.89-199.72 283.15-41.142 126.63-256.58 126.63 256.58 283.15 41.144-204.89 199.72 22.794 135.88-86.906 86.998-140.78-74.01z" fill="none" filter="url(#h)" stroke="#fff" stroke-width="16" style="mix-blend-mode:overlay;paint-order:markers stroke fill"/></g></svg>
